<svg xmlns="http://www.w3.org/2000/svg" width="91" height="79"><path style="stroke:none;fill-rule:nonzero;fill:#000;fill-opacity:1" d="M20.004 22.293V7.375c0-3.598 2.476-5.988 6.016-5.988h35.648c1.168 0 2.176.343 3 1.187l9.012 9.227c.824.86 1.156 1.988 1.156 3.176v28.496l1.41-.012V14.254c0-1.246-.48-2.422-1.351-3.309l-9.508-9.574A4.68 4.68 0 0 0 62.086 0H25.418c-3.719 0-6.75 3.04-6.75 6.773v16.168Zm-1.336 30.094v19.855c0 3.73 3.031 6.774 6.75 6.774h8.578v-1.387H26.02c-3.528 0-6.016-2.406-6.016-5.988V53.02Zm41.785 14.886"/><path style="stroke:none;fill-rule:nonzero;fill:#000;fill-opacity:1" d="M71.535 13.156h-8.308V4.441c0-.648 0-1.16-.63-1.16-.644 0-.628.528-.628 1.16v8.82c0 .65.508 1.16 1.152 1.16h8.414c.645 0 1.156.017 1.156-.632 0-.648-.527-.633-1.156-.633Zm0 0"/><path style="stroke:none;fill-rule:nonzero;fill:#231f20;fill-opacity:1" d="M40.79 54.688c-2.067 0-2.505.89-2.505 1.628v9.196c0 .738.438 1.625 2.504 1.625 2.07 0 2.508-.887 2.508-1.625v-9.196c0-.738-.438-1.629-2.508-1.629Zm-1.185 2.078c0-.723.36-1.04 1.184-1.04.828 0 1.188.317 1.188 1.04v8.308c0 .723-.36 1.04-1.188 1.04-.824 0-1.184-.317-1.184-1.04ZM47.164 45.793h-1.336v7.422h-.883v1.039h.883v14.375h1.336V54.254h2.07v-1.04h-2.07ZM52.34 54.688c-2.07 0-2.504.89-2.504 1.628v9.196c0 .738.434 1.625 2.504 1.625s2.504-.887 2.504-1.625v-1.477h-1.336v1.04c0 .722-.36 1.038-1.184 1.038s-1.183-.316-1.183-1.039v-2.511c.328.09.718.132 1.183.132 2.07 0 2.504-.886 2.504-1.625v-4.742c.016-.75-.418-1.64-2.488-1.64Zm-1.188 2.078c0-.723.364-1.04 1.188-1.04s1.183.317 1.183 1.04v3.855c0 .723-.359 1.04-1.183 1.04-.824 0-1.188-.317-1.188-1.04ZM59.387 54.688c-2.07 0-2.504.89-2.504 1.628V72.77h1.336v-5.766c.328.09.718.133 1.183.133 2.07 0 2.504-.887 2.504-1.625v-9.196c0-.738-.433-1.629-2.52-1.629Zm-1.168 2.078c0-.723.36-1.04 1.183-1.04.825 0 1.184.317 1.184 1.04v8.308c0 .723-.36 1.04-1.184 1.04s-1.183-.317-1.183-1.04ZM66.453 54.688c-2.07 0-2.508.89-2.508 1.628v1.473h1.336V56.75c0-.723.36-1.04 1.184-1.04.828 0 1.187.317 1.187 1.04v2.516a4.553 4.553 0 0 0-1.187-.137c-2.067 0-2.504.89-2.504 1.625v4.742c0 .738.437 1.625 2.504 1.625 2.07 0 2.508-.887 2.508-1.625v-9.195c0-.723-.453-1.614-2.52-1.614Zm-1.187 6.519c0-.723.359-1.039 1.187-1.039.824 0 1.184.316 1.184 1.039v3.855c0 .72-.36 1.036-1.184 1.036-.828 0-1.187-.317-1.187-1.035ZM74.805 54.824a4.501 4.501 0 0 0-1.184-.136c-2.07 0-2.504.89-2.504 1.628v9.196c0 .738.434 1.625 2.504 1.625s2.504-.887 2.504-1.625V45.793h-1.336v9.031Zm-2.356 1.942c0-.723.36-1.04 1.188-1.04.824 0 1.183.317 1.183 1.04v8.308c0 .723-.36 1.04-1.183 1.04-.828 0-1.188-.317-1.188-1.04ZM79.543 54.688h-1.332v2.968h-1.484v1.035h1.484v2.97h1.332v-2.97h1.473v-1.035h-1.473ZM84.418 57.656v-2.968h-1.336v2.968h-1.484v1.035h1.484v2.97h1.336v-2.97h1.469v-1.035ZM35.168 45.793c-2.07 0-2.504.887-2.504 1.625v27.926h1.332V47.87c0-.723.36-1.039 1.188-1.039.824 0 1.183.316 1.183 1.04v19.265h1.336V47.418c-.016-.738-.453-1.625-2.535-1.625Zm0 0"/><path style="stroke:none;fill-rule:nonzero;fill:#90e59a;fill-opacity:1" d="M19.418 23.996c1.277-1.266 3.105-1.613 4.77-2.137 1.906-.105 3.808.48 5.535 1.278.75.3.703 1.191.87 1.867-.542.121-1.081.226-1.62.36.238-.376.465-.735.691-1.114-.016-.36-.437-.496-.644-.75l-.856.586c-.195-.168-.39-.332-.586-.496-.523.074-1.094.148-1.59-.137-.84-.375-1.738-.664-2.668-.57-.422.18-.75.512-1.097.797 0-.153.015-.453.015-.602-.195.223-.39.45-.57.692-1.29.136-1.887 1.476-1.605 2.632-.27.211-.555.438-.825.649.301-.586.555-1.235.211-1.867-.96.285-1.035 1.34-1.469 2.093-.449.828-1.214 1.461-1.574 2.332-.031.48.043.95.09 1.43-.36-.105-.723-.195-1.066-.3.898-2.454 1.996-4.981 3.988-6.743Zm0 0"/><path style="stroke:none;fill-rule:nonzero;fill:#5cce74;fill-opacity:1" d="M22.223 23.695c.359-.289.675-.633 1.097-.8.93-.09 1.828.199 2.668.574-.12.527-.3 1.039-.539 1.52a25.665 25.665 0 0 1-2.117-1.22c.137.27.273.544.406.813-.148.211-.316.406-.465.617-.3-.39-.597-.781-.882-1.187-.106.586-.543 1.023-1.141.691.133-.316.27-.617.402-.918.18-.242.375-.469.57-.691.016.133 0 .433 0 .601Zm0 0"/><path style="stroke:none;fill-rule:nonzero;fill:#75d66f;fill-opacity:1" d="M25.988 23.453c.496.285 1.051.211 1.59.137.195.164.39.328.586.496l.856-.586c.19.254.628.39.644.75-.21.379-.453.754-.691 1.113a5.995 5.995 0 0 0-.524.137c.27.332.54.664.809.98-1.14.06-1.965-.722-2.836-1.296-.793.12-1.363.98-2.188 1.07-.406-.18-.78-.422-1.156-.664-.133.437-.223.89-.48 1.265-.375.254-.856.254-1.29.375.016.196.047.407.06.602-.466-.45-1.032-.871-1.692-.57.476.496-.242.691-.57.918-.645.363-1.368.828-1.442 1.64-.18.47.016 1.192-.508 1.446-.617.164-1.246.058-1.86.047.044-.153.118-.438.165-.59.36.105.719.195 1.062.3-.058-.48-.132-.945-.09-1.43.36-.87 1.126-1.503 1.575-2.331.437-.754.512-1.805 1.472-2.094.344.633.09 1.281-.21 1.867.27-.226.539-.437.824-.648-.285-1.157.316-2.496 1.605-2.633-.137.3-.27.617-.406.918.586.332 1.035-.106 1.14-.692.286.407.587.797.887 1.188.149-.211.297-.406.465-.617-.137-.27-.27-.54-.406-.813.691.438 1.394.828 2.113 1.219.195-.45.375-.96.496-1.504m-5.984 9.574c.332.059.644.121.976.196-.375 1.007-.902 2.03-.84 3.144.196.723.794 1.266 1.243 1.852-.66.199-1.574.047-2.024.664-.27 1.203.825 1.898 1.532 2.633-1.02-.375-2.16-.918-2.52-2.047.492-.617 1.11-1.114 1.754-1.594-.93-1.414-1.336-3.492-.121-4.848m10.394 2.543c.239.211.493.422.735.617.031.407.058.829.074 1.235-.418-.543-.793-1.129-.809-1.852m6.387.317c.258-.36.692-.332.961-.016.512.664.797 1.445 1.14 2.2.434.03.872.058 1.29.09-.856.316-1.664.796-1.785 1.792-.36-.512.164-.98.375-1.445-.48-1.012-1.649-1.524-1.98-2.621m-12.24.648.259-.137c.043.68.36 1.461-.137 2.032-.496-.043-.973-.075-1.453-.164.644-.422 1.125-.95 1.332-1.73m6.66.901c.36.481.766.903 1.215 1.293.48-.554 1.547-1.44 1.98-.39-.718.347-1.62.601-1.859 1.476 0 .032-.016.075-.016.106.106.766.391 1.504.614 2.242-1.649-1.07-.66-3.371-1.934-4.727m8.969.211c.703.075 1.453.243 1.996.77-.676-.047-1.367-.016-1.996-.258v-.512m-1.77 3.883c.856.38 1.696.785 2.594 1.086.512-.21 1.23-1.34 1.652-.512-.66.602-1.578 1.22-2.507 1.008-.72-.347-1.184-1.039-1.739-1.582m-23.8.137c.164.031.48.074.66.09.718 1.672.75 3.613 1.738 5.18.57.933 1.035 1.91 1.574 2.859.57.976 1.516 1.64 2.402 2.316 1.887 1.403 5.008 1.192 6.344-.87.856-1.837-.21-3.778-.945-5.466-1.262-1.988-4.547-.48-4.453 1.688-.375-2.153 2.367-3.977 4.199-2.875 1.305.84 1.664 2.437 2.172 3.808.601 1.641-.285 3.582-1.828 4.305-1.2.766-2.672.465-4.004.465-1.832-.09-3.016-1.582-4.2-2.77-1.156-1.414-1.906-3.101-2.804-4.695-.48-1.281-.75-2.652-.856-4.035m9.72 5.508c.21.242.374.511.585.77-.512.66-1.336.632-2.07.527-.3-.332-.617-.664-.914-.996.719.437 1.527 1.328 2.43.77-.032-.364-.032-.708-.032-1.071Zm0 0"/><path style="stroke:none;fill-rule:nonzero;fill:#8fe772;fill-opacity:1" d="M24.203 26.254c.824-.09 1.395-.95 2.192-1.07.882.586 1.707 1.355 2.832 1.296-.27-.332-.54-.664-.809-.98.137-.031.406-.105.523-.137.543-.133 1.082-.238 1.622-.36.136.513.269 1.04.433 1.552-.254.254-.508.527-.777.78.554.77 1.062 1.583 1.617 2.349 1.156-.317 1.89.8 2.402 1.671-1.035-.058-2.207-.074-3.015-.828-.496-.449-.977-.918-1.5-1.355-.317.094-.63.183-.946.273-.254-.617-.406-1.43-1.183-1.582.058.317.133.617.195.934-.465.27-.977.39-1.5.242.211-.437.434-.86.66-1.297-.644-.058-1.02.496-1.383.934-.074-.227-.148-.45-.207-.676-.242-.031-.464-.09-.707-.105-.343.074-.48.57-.855.585-.613-.058-1.2-.316-1.828-.347-.75.105-1.453.437-2.188.648-.242-.195-.496-.39-.738-.586.332-.242 1.066-.422.57-.918.676-.3 1.23.121 1.696.57-.016-.195-.043-.406-.059-.6.434-.106.898-.122 1.29-.376.253-.379.343-.844.48-1.266.402.227.777.47 1.183.649Zm0 0"/><path style="stroke:none;fill-rule:nonzero;fill:#a9f37e;fill-opacity:1" d="M30.234 27.336c.254-.254.508-.527.778-.781.254.765.586 1.55 1.23 2.062 1.078.828 2.203 1.73 3.555 2.047 1.2.227 2.52.09 3.555-.602.898-.812 1.32-2.003 2.25-2.785.867.438 1.843.633 2.683 1.13.871.554 1.29 1.55 1.817 2.405-.57.106-1.125.227-1.696.348.207.363.434.738.66 1.098-.152.226-.3.453-.437.695-.285-.453-.555-.906-.824-1.355-.614.148-1.2.39-1.723.722.059.285.117.57.18.856-1.32-.676-2.73 0-3.914.664-.364.195-.739.422-1.098.617-.75-.406-1.484-.828-2.277-1.145a17.65 17.65 0 0 1-1.067 1.493c-.133-.395-.285-.785-.402-1.192-.137.016-.406.063-.543.075a7.04 7.04 0 0 0 .031 1.671c-.36-.043-.734-.09-1.094-.132.165-.754.36-1.493.508-2.258-.18.011-.554.043-.734.058-.613.95-.645 2.094-.524 3.192-.257-.211-.496-.422-.734-.617.027-.782.133-1.551.195-2.332-.812-.348-1.14.585-1.293 1.187-.449-.152-.898-.285-1.332-.453-1.007-.316-1.668-1.203-2.64-1.594-.512-.21-.887-.633-1.274-1.008a8.08 8.08 0 0 0-.168.602c.391.66.391 1.52-.375 1.926-.238-.032-.718-.09-.972-.137.808.828 1.992.98 3.058 1.266-.148.105-.449.316-.601.421-1.02-.332-2.13-.359-3.086-.886-.031-.39-.078-.801-.106-1.192-.285-.058-.554-.105-.84-.164-.332-.062-.644-.12-.976-.195-.238-.285-.508-.785-.945-.527-.344.316-.63.691-.957 1.039-.196-.274-.407-.543-.602-.813-1.469.18-1.352 1.957-2.293 2.754-.602.438-.57 1.266-1.125 1.746-.078-.676-.121-1.34-.047-2.015.3-1.192.824-2.305 1.125-3.508.031-.09.074-.29.106-.395.613.031 1.257.121 1.859-.043.523-.258.316-.98.508-1.445.094-.813.797-1.281 1.441-1.64.238.195.496.39.735.585.734-.226 1.441-.543 2.191-.648.629.031 1.215.289 1.828.347.375-.015.496-.511.856-.585.238.015.464.074.703.105.078.227.152.45.21.676.376-.438.735-.992 1.38-.934-.223.438-.434.86-.66 1.297.527.148 1.035.016 1.5-.242-.075-.317-.133-.617-.196-.934.781.137.934.95 1.188 1.582.312-.09.628-.18.945-.273.508.437 1.004.906 1.5 1.355.808.754 1.976.77 3.012.828-.493-.855-1.243-1.988-2.399-1.671-.555-.766-1.078-1.579-1.633-2.348Zm0 0"/><path style="stroke:none;fill-rule:nonzero;fill:#87de71;fill-opacity:1" d="M44.422 31.16c.566-.12 1.125-.226 1.691-.348.18.395.332.786.48 1.176-1.558 1.567-3.85 1.973-5.906 2.453-.855.258-1.652-.195-2.355-.601 1.184-.649 2.594-1.34 3.914-.664-.059-.285-.121-.57-.18-.856a6.095 6.095 0 0 1 1.723-.722c.27.449.555.902.824 1.355.137-.226.285-.469.438-.695-.196-.36-.422-.735-.63-1.098Zm0 0"/><path style="stroke:none;fill-rule:nonzero;fill:#fbfdfc;fill-opacity:1" d="m33.082 27.637-.031.183c1.293 1.293 3.21 2.09 5.011 1.563.688-.375 1.38-.84 1.708-1.578a10.458 10.458 0 0 0 .554-7.559c-.687-.496-1.347-1.066-1.754-1.82-.824-1.145-2.187-2.348-3.687-1.809-1.531.211-2.61 1.567-3.031 2.98-.57 1.81-.766 3.856.015 5.633.149.887.317 1.985 1.215 2.407Zm2.879-4.442c.332.98-.211 2.336-1.41 2.352-.54-.379-1.29-.723-1.168-1.508-.211-1.445 1.738-1.398 2.578-.844ZM46.055 28.887c.691-.739 1.53-1.309 2.265-1.989 1.258-1.851 2.325-4.304 1.364-6.53-.329-1.477-2.04-1.99-3.375-1.821-1.754.3-3.688.933-4.618 2.601.028 1.63.286 3.254-.046 4.864 1.71.453 3.57 1.203 4.41 2.875Zm1.261-6.848c.344-.078.704-.168 1.047-.273.39.605.375 1.46.168 2.125-.691.675-1.68-.016-1.965-.754.254-.375.508-.739.75-1.098Zm0 0"/><path style="stroke:none;fill-rule:nonzero;fill:#231f20;fill-opacity:1" d="M40.176 37.648c0 .016 0 .016 0 0 .015.016.015.016 0 0 .015.016.015.016 0 0Zm0 0"/><path style="stroke:none;fill-rule:nonzero;fill:#fff;fill-opacity:1" d="M10.48 38.64c-.164.38-.359.77-.554 1.13.164.484.422.933.719 1.34.09-.044.27-.118.347-.15-.644-.753-.137-1.655.285-2.378a5.143 5.143 0 0 1-.797.059ZM12.355 38.93l-.058-.168c-.031.062-.078.18-.09.242l-.168.195a.772.772 0 0 0-.101.137c-.391.328-.317.84-.364 1.293.063.105.196.332.258.453.672.406.54-1.086.074-1.117.285-.344.598-.676.688-1.13Zm0 0"/><path style="stroke:none;fill-rule:nonzero;fill:#231f20;fill-opacity:1" d="M34.55 25.547c1.2 0 1.727-1.371 1.41-2.352-.839-.554-2.773-.601-2.577.828-.121.786.629 1.145 1.168 1.524ZM48.531 23.875c.207-.664.223-1.52-.168-2.121a11.41 11.41 0 0 1-1.047.27c-.257.359-.496.722-.75 1.081.286.754 1.258 1.446 1.965.77Zm0 0"/><path style="stroke:none;fill-rule:nonzero;fill:#231f20;fill-opacity:1" d="M47.871 38.43c-1.547-.27-3.105-.012-4.652-.043-.688-.469-1.364-1.008-2.219-1.07-.27.12-.54.226-.809.331.704.075 1.438.243 1.98.754-.675-.047-1.366-.015-1.995-.257-.856.316-1.664.796-1.785 1.792-.36-.511.164-.98.375-1.445-.48-1.008-1.633-1.535-1.98-2.62.257-.36.69-.333.96-.017.512.665.797 1.446 1.14 2.2.434.03.872.058 1.29.09v-.497c-.211.09-.434.18-.645.286a22.522 22.522 0 0 1-.96-2.528c.511.121 1.003.301 1.515.407 2.34-.364 4.844-.829 6.676-2.454.386-.39 1.078-.738.957-1.386a2.729 2.729 0 0 0-.301-.934c-.254-.539-.613-1.039-.84-1.61.527-.195 1.067-.39 1.578-.632 1.828-1.793 2.742-4.352 2.938-6.879-.18-1.34-.555-2.816-1.59-3.762-1.89-.949-4.11-.648-6.027.043-.872.348-1.5 1.055-2.235 1.625-.586-.133-.945-.812-1.336-1.262-.75-1.28-1.77-2.457-3.164-3.011-1.172-.047-2.504-.364-3.512.39-.507.332-1.078.633-1.437 1.16a12.556 12.556 0 0 0-1.41 4.907c-.254-.106-.512-.195-.766-.301-1.785-.664-3.644-1.113-5.547-1.055-1.32.258-2.61.649-3.84 1.207-2.503 1.309-4.093 3.868-5.023 6.473a13.367 13.367 0 0 0-1.203 3.598c-.207 1.129-.645 2.226-.703 3.386 0 .782.058 1.563.043 2.348l-.102.059c-.812.453-1.77.437-2.672.59-.675-.016-1.32-.348-1.992-.153h-.015c-.723.348-1.485.543-2.208.875-.164 1.024-.328 2.438.903 2.828h1.32c1.559 0 3.102.016 4.664.032h.36c.375 1.957.75 3.972 1.785 5.703 1.215 1.972 2.414 4.035 4.258 5.48 1.77 1.188 4.003 1.234 6.027.875.765-.094 1.305-.695 1.996-.98.422-.254 1.05-.317 1.2-.86 1.378-2.258.331-5.043-.93-7.105-.793-1.414-2.536-1.7-4.004-1.64-.872.136-1.41.874-2.114 1.327-.765.465-1.515 1.457-.93 2.364.493.945 1.11 2.21 2.368 2.136.797-.09 1.844-.273 2.191-1.101.149-1.008-1.035-1.489-1.832-1.668l.137 1.472c-.406-.285-.824-.554-1.246-.84.258-1.328 1.726-1.296 2.746-1.703 1.035 1.61 2.113 3.688 1.273 5.614-.972 1.222-2.73 1.07-4.078.754-1.77-.27-2.953-1.868-3.734-3.356-1.184-2.062-2.625-4.277-2.371-6.758.824-.015 1.664-.078 2.476.012.793.184 1.5.875 2.356.543 1.828-.496 3.734-.195 5.605-.227 1.473-.074 2.957-.148 4.426-.058.523.148.824.797 1.441.754.704.238 1.11-.5 1.633-.801 1.184-.043 2.387-.074 3.555 0 .555.98 1.394 2.035 2.594 2.184 1.457.062 2.699-.977 3.48-2.121 1.035.238 2.145.554 3.149.042 2.175-.917 4.574-.917 6.808-1.562v-.648c-1.754-1.114-3.972-.786-5.996-1.297Zm-10.035.047c-1.336.03-2.926.195-3.734-1.13-.54.15-1.079.36-1.364.887-.195-.105-.601-.328-.797-.433 0-.5 0-.996.047-1.492h.899c.824.046 1.636-.09 2.445-.196.418.043.523.559.793.813.48.601 1.156 1.023 1.71 1.55Zm-.945 1.37a36.611 36.611 0 0 1-3.075-.03c-.105-.618.676-.497 1.051-.587.871-.062 1.723-.015 2.594-.015.031.437-.148.644-.57.633Zm4.8-18.683c.93-1.672 2.864-2.3 4.618-2.602 1.336-.167 3.03.344 3.375 1.82.96 2.212-.106 4.665-1.364 6.532-.734.695-1.574 1.25-2.265 1.988-.84-1.687-2.7-2.437-4.41-2.859.316-1.625.074-3.266.046-4.879Zm-9.84-1.566c.422-1.414 1.5-2.77 3.032-2.98 1.5-.54 2.879.663 3.687 1.808.422.765 1.067 1.324 1.754 1.82.766 2.469.57 5.223-.554 7.559-.329.75-1.036 1.203-1.708 1.578-1.816.527-3.718-.27-5.011-1.563l.031-.183c-.914-.422-1.066-1.535-1.23-2.407-.766-1.777-.57-3.824 0-5.632ZM8.579 41.383a11.664 11.664 0 0 1-1.605-.137c-.09-.512-.317-1.266.207-1.61.543-.3.918-.784 1.23-1.312a.613.613 0 0 0 .168.016c.45.062.914.047 1.363-.043-.046.586-.84.844-.734 1.445.133.586.465 1.113.703 1.668-.45-.012-.883-.027-1.332-.027Zm2.414-.406c-.09.043-.27.117-.347.148a5.827 5.827 0 0 1-.72-1.34c.212-.36.391-.75.555-1.129.254-.015.524-.031.782-.058-.407.722-.914 1.609-.27 2.379Zm.809.09c-.059-.106-.196-.333-.254-.454.043-.449-.031-.96.36-1.293a1.04 1.04 0 0 0 .105-.136l.164-.196c.031-.058.074-.18.09-.242l.058.168.211-.09c-.074.45-.406.781-.691 1.13.511.026.633 1.519-.043 1.112Zm1.094-1.266a1.05 1.05 0 0 1 .347-.512c.524-.406 1.422-.3 2.055-.348.75.106 1.68-.195 2.246.454-.059.136-.18.406-.238.542-1.352-.062-2.715-.09-4.063-.12-.12 0-.226 0-.347-.016Zm6.253-2.184c-.777.406-1.648.422-2.488.422-.18-1.293.63-2.394 1.23-3.46.27-.063.54-.122.81-.196-.376 1.113-.165 2.258.448 3.234Zm-2.16 9.336c.57.93 1.035 1.91 1.578 2.86.567.976 1.512 1.64 2.399 2.316 1.89 1.402 5.008 1.191 6.344-.871.855-1.836-.211-3.781-.946-5.465-1.261-1.988-4.543-.48-4.453 1.684.719.437 1.527 1.328 2.43.77a23.776 23.776 0 0 1-.031-1.071c.21.242.375.511.586.77-.512.66-1.336.632-2.07.527-.302-.332-.618-.664-.915-.996-.375-2.153 2.367-3.973 4.2-2.875 1.304.843 1.663 2.441 2.171 3.808.602 1.64-.285 3.586-1.828 4.309-1.2.765-2.668.465-4.004.465-1.828-.09-3.015-1.582-4.199-2.77-1.156-1.414-1.906-3.102-2.805-4.695-.465-1.297-.734-2.68-.84-4.051.165.031.48.074.66.09.704 1.687.75 3.613 1.723 5.195ZM13.45 41.02c-.058-.106-.148-.317-.207-.422 1.59-.254 3.176.12 4.766.183.062.074.183.211.258.285-1.606 0-3.227.121-4.817-.046Zm4.934-1.567c.496-.617 1.113-1.113 1.758-1.594-.93-1.398-1.352-3.476-.137-4.832-.238-.285-.508-.78-.945-.527-.344.316-.63.691-.957 1.04-1.399 1.07-1.938 2.769-2.778 4.23a31.317 31.317 0 0 0-1.215-.032c0-.12-.015-.375-.027-.511-.078-.676-.121-1.34-.047-2.016.3-1.191.824-2.305 1.125-3.508.031-.09.074-.285.106-.39.043-.153.12-.438.164-.59.898-2.453 2.011-4.965 3.988-6.743 1.277-1.265 3.105-1.609 4.77-2.136 1.875-.106 3.75.465 5.445 1.25.031.011.058.027.09.043.75.3.703 1.191.87 1.867.134.512.27 1.039.434 1.55.254.766.586 1.551 1.23 2.063 1.079.828 2.204 1.73 3.556 2.047 1.199.227 2.519.09 3.554-.602.899-.812 1.32-2.003 2.25-2.785.867.438 1.844.633 2.684 1.13.87.554 1.289 1.55 1.812 2.405.032.079.063.153.09.227.137.316.258.633.39.95-1.558 1.566-3.85 1.972-5.906 2.452-.855.258-1.652-.195-2.355-.601-.36.195-.734.422-1.094.617-1.293.691-2.793 1.07-4.261.902-.36-.043-.735-.09-1.094-.132.164-.754.36-1.493.508-2.258-.18.011-.555.043-.735.058-.613.95-.644 2.094-.523 3.192.031.406.058.828.074 1.234-.434-.543-.793-1.144-.809-1.851.028-.782.133-1.551.196-2.332-.813-.348-1.14.585-1.293 1.187 0 .332.031.664.047.992-1.426.332-2.938.5-4.348.031-1.02-.332-2.133-.359-3.09-.886-.031-.39-.078-.801-.105-1.192-.285-.058-.555-.105-.84-.164-.375 1.008-.902 2.032-.84 3.145.195.722.793 1.265 1.242 1.851-.656.196-1.574.047-2.023.664-.27 1.204.824 1.895 1.531 2.633-1.004-.406-2.145-.949-2.492-2.078Zm12.586-.84c-1.86.028-3.735.09-5.594-.078.117-.617.328-1.219.492-1.836 1.305-.043 2.61 0 3.914-.058.633.48.903 1.265 1.188 1.972Zm-6.301-.183c-.496-.043-.973-.075-1.453-.164.644-.438 1.125-.965 1.332-1.73l.258-.138c.043.68.36 1.461-.137 2.032Zm-1.469-2.258c-.09.348-.164.695-.226 1.055-.465.257-.883.601-1.29.918a3.543 3.543 0 0 1-.57-2.68c.692.21 1.532.18 2.086.707Zm-2.789 3.703c-.09-.316-.18-.645-.285-.96.688.163 1.785-.243 2.203.327.617.106 1.2.395 1.832.41 2.235-.664 4.602-.304 6.899-.304l.058.8c-1.722.059-3.449.075-5.176.028-.898 0-1.753-.602-2.652-.328-.39.027-.84.449-1.184.09a66.32 66.32 0 0 0-1.695-.063Zm10.633 1.46c-2.594.09-5.176.048-7.77.032-.539-.015-1.093-.047-1.632-.062-.137-.18-.274-.375-.407-.555.676 0 1.348.016 2.04 0 2.656.031 5.308.074 7.964.254-.062.09-.152.258-.195.332Zm.39-3.64c.297.375.63.707.989 1.024.48-.559 1.547-1.446 1.98-.395-.718.348-1.62.606-1.859 1.477l-.016.105c.106.77.391 1.504.614 2.242-1.543-.992-.778-3.07-1.707-4.453Zm8.712 5.418c-.72-.347-1.168-1.039-1.723-1.582.855.38 1.695.785 2.594 1.086.511-.21 1.23-1.34 1.648-.512-.672.602-1.59 1.22-2.52 1.008Zm4.378-1.851c-.687.09-1.332-.348-2.039-.285-1.379.09-2.773.21-4.136-.09-1.563.328-3.164.18-4.743.27-.011-.153-.027-.454-.042-.602 1.605-.137 3.207-.078 4.785.238 1.468-.195 2.968-.012 4.437-.27.602.047 1.875-.226 1.738.739Zm-2.636-1.282c-.903-.12-1.848.047-2.73-.222.058-.106.179-.332.238-.453 1.605-.137 3.21-.364 4.843-.27.453.09.797.45 1.172.692-1.094.543-2.355.406-3.523.253Zm7.812.68c-1.215.227-2.355.766-3.597.797.027-.332.043-.676.043-1.008.136-.09.421-.285.57-.379.031-.36.074-.722.105-1.082 1.004-.047 1.95.332 2.938.438.015.39.137.844-.059 1.234Zm0 0"/><path style="stroke:none;fill-rule:nonzero;fill:#97eb74;fill-opacity:1" d="M24.07 31.387c.387.375.762.797 1.274 1.008.96.375 1.633 1.28 2.64 1.597-.09.149-.18.313-.27.465-1.366-.437-2.82-.105-4.187-.543.766-.406.766-1.262.375-1.926a8.08 8.08 0 0 1 .168-.601Zm0 0"/><path style="stroke:none;fill-rule:nonzero;fill:#84cb71;fill-opacity:1" d="M15.191 35.48c.946-.796.825-2.574 2.293-2.753.211.27.407.543.602.812-1.395 1.07-1.938 2.77-2.777 4.23a31.317 31.317 0 0 0-1.215-.03c0-.122-.012-.376-.028-.512.555-.48.524-1.309 1.125-1.747Zm0 0"/><path style="stroke:none;fill-rule:nonzero;fill:#6cb960;fill-opacity:1" d="M34.957 33.313c.793.316 1.531.738 2.281 1.144-1.293.691-2.793 1.07-4.261.902a7.04 7.04 0 0 1-.032-1.672c.137-.011.407-.042.543-.074.133.39.27.785.403 1.192.375-.485.734-.98 1.066-1.492Zm0 0"/><path style="stroke:none;fill-rule:nonzero;fill:#77c66c;fill-opacity:1" d="M22.555 33.781c.238.028.718.09.972.133 1.368.438 2.82.106 4.188.543.09-.152.18-.316.27-.465.449.164.882.301 1.331.45 0 .331.032.663.047.995-1.425.329-2.941.497-4.351.028l.601-.422c-1.066-.285-2.25-.434-3.058-1.262Zm0 0"/><path style="stroke:none;fill-rule:nonzero;fill:#d07b84;fill-opacity:1" d="M8.426 38.324c.511.078 1.02.078 1.531-.027-.047.586-.84.844-.734 1.445.132.586.464 1.113.703 1.668-.977-.043-1.965.016-2.926-.164-.09-.512-.313-1.266.21-1.61.528-.316.9-.784 1.216-1.312Zm0 0"/><path style="stroke:none;fill-rule:nonzero;fill:#fefefe;fill-opacity:1" d="M46.82 38.988c1.004-.047 1.95.332 2.938.438 0 .406.12.855-.074 1.25-1.215.222-2.356.765-3.598.797.027-.332.043-.68.043-1.008.137-.09.422-.29.57-.38.047-.374.09-.737.121-1.097Zm0 0"/><path style="stroke:none;fill-rule:nonzero;fill:#e1cb86;fill-opacity:1" d="M20.125 38.914c.688.164 1.785-.242 2.203.328-.121-.012-.36-.043-.48-.058.078.242.152.496.242.738-.555 0-1.125-.031-1.68-.031-.09-.332-.195-.66-.285-.977m-6.883 1.684c1.59-.254 3.176.12 4.766.183.062.074.183.211.258.285-1.606 0-3.227.121-4.817-.046a5.25 5.25 0 0 1-.207-.422Zm0 0"/><path style="stroke:none;fill-rule:nonzero;fill:#ddc377;fill-opacity:1" d="M12.895 39.8c.3-.991 1.59-.812 2.414-.859.75.106 1.68-.195 2.25.454l-.239.542c-1.484-.078-2.953-.09-4.425-.136m10.378.965c2.657.027 5.309.074 7.965.254-.047.09-.152.257-.195.332-2.594.09-5.176.046-7.77.03v-.616Zm0 0"/><path style="stroke:none;fill-rule:nonzero;fill:#dcc576;fill-opacity:1" d="M21.848 39.184c.12.015.359.046.48.058.617.106 1.2.395 1.832.41 2.235-.664 4.602-.304 6.899-.304l.058.8c-1.722.059-3.449.075-5.176.028-.898 0-1.753-.602-2.652-.328-.39.027-.84.449-1.184.09-.105-.274-.18-.512-.257-.754m-.614 1.566c.676 0 1.348.016 2.04 0v.617c-.54-.015-1.094-.047-1.633-.062-.137-.18-.274-.36-.407-.555Zm0 0"/><path style="stroke:none;fill-rule:nonzero;fill:#f5d776;fill-opacity:1" d="M33.816 39.816c-.105-.617.676-.496 1.051-.586.871-.062 1.723-.015 2.594-.015.047.437-.133.644-.555.633-1.035.027-2.07.027-3.09-.032m5.579-.511c1.605-.137 3.21-.364 4.843-.27.453.09.797.45 1.172.692-1.094.543-2.34.421-3.523.253-.903-.12-1.848.047-2.73-.222.058-.121.179-.348.238-.453m-5.833 1.265c1.606-.136 3.208-.078 4.786.239 1.468-.196 2.968-.016 4.437-.27.613.043 1.89-.227 1.738.738-.687.09-1.332-.347-2.039-.285-1.379.09-2.773.207-4.136-.094-1.563.332-3.164.184-4.743.274-.011-.152-.027-.453-.042-.602Zm0 0"/><path style="stroke:none;fill-rule:nonzero;fill:#959d64;fill-opacity:1" d="M32.527 39.922c0-.031.016-.074.016-.106Zm0 0"/></svg>